# xmcd
#
# Track frame offsets: 
#        150
#        19639
#        33292
#        46757
#        59895
#        73288
#        86477
#        100936
#        113933
#        130002
#        150235
#        163398
#        185738
#
# Disc length: 2679 seconds
#
# Revision: 0
# Processed by: cddbd v1.5.2PL0 Copyright (c) Steve Scherf et al.
# Submitted via: ExactAudioCopyFreeDBPlugin 1.0
#
DISCID=af0a750d
DTITLE=O'Brien Band, Tim - Tim O'Brien Band
DYEAR=2019
DGENRE=Bluegrass
TTITLE0=Diggin' My Potatoes
TTITLE1=Drunkard's Walk
TTITLE2=Doney Gal
TTITLE3=Hop Down Reel - Johnny Doherty's Reel
TTITLE4=The Other Woman
TTITLE5=Beyond
TTITLE6=My Love Lies in the Ground
TTITLE7=Pastures of Plenty
TTITLE8=Wind
TTITLE9=La Gringa Renee
TTITLE10=Amazing Love
TTITLE11=Last Train from Poor Valley
TTITLE12=Crooked Road
EXTD=
EXTT0=
EXTT1=
EXTT2=
EXTT3=
EXTT4=
EXTT5=
EXTT6=
EXTT7=
EXTT8=
EXTT9=
EXTT10=
EXTT11=
EXTT12=
PLAYORDER=
